<svg xmlns="http://www.w3.org/2000/svg" width="630.595" height="417.729" viewBox="0 0 630.595 417.729"><defs><style>.a,.g{fill:#fff;}.a,.c,.l,.m,.q{stroke:#273339;}.a,.c,.i,.l,.m,.n{stroke-miterlimit:10;}.b,.o{fill:#c6d5e0;}.c,.h,.q{fill:#999;}.d,.f,.m{fill:#273339;}.e,.i{fill:#8ec869;}.f{opacity:0.39;}.f,.o{isolation:isolate;}.i{stroke:#568438;}.j{fill:#1a214d;}.k,.l,.n{fill:#3a6d79;}.n{stroke:#27545b;}.o{mix-blend-mode:multiply;}.p{fill:#330e0a;}.q{stroke-miterlimit:9.999;}.r{fill:#6d7174;}</style></defs><g transform="translate(-1326.259 -793.304)"><path class="a" d="M1733.477,3081.816a64.462,64.462,0,0,1-5.572,18.083c-5.426,11.851-13.448,23.046-19.288,34.019a97.13,97.13,0,0,0-10.231,25.909c-1.269,6.487-2.554,12.4-6.444,17.6a25.508,25.508,0,0,1-3.15,3.5c-4.97,4.613-12.764,6.907-18.827,3.8-6.506-3.335-8.828-11.556-8.135-18.734,1.246-12.98,7.015-25.2,11.249-37.374a195.768,195.768,0,0,1,14.464-31.9c2.994-5.319,5.625-10.87,8.224-16.426a183.962,183.962,0,0,1,13.658-25.648c.823-1.218,1.678-2.417,2.578-3.6a25.806,25.806,0,0,1,3.409-3.825,13.442,13.442,0,0,1,2.1-1.528C1729.839,3038.535,1734.467,3074.527,1733.477,3081.816Z" transform="translate(-334.944 -2050.625)"></path><path class="a" d="M1358.794,1013.837c3.87-8.246,7.782-16.474,12.876-23.966q1.245-1.84,2.594-3.626a26.046,26.046,0,0,1,3.434-3.85,13.4,13.4,0,0,1,2.117-1.54c12.441-7.2,17.111,29.068,16.113,36.415a64.933,64.933,0,0,1-5.614,18.22c-5.469,11.94-13.551,23.224-19.438,34.28-4.283,8.035-8.56,17.147-10.309,26.107-.534,2.73-1.071,5.357-1.8,7.874" transform="translate(2.582 15.055)"></path><path class="b" d="M1359.456,1100.63c.464-1.87.853-3.8,1.241-5.778,1.747-8.96,6.025-18.073,10.308-26.107,5.888-11.056,13.968-22.34,19.438-34.28-.176-.633-.357-1.266-.532-1.892-.712,0-7.373-24.468-8.254-26.909a41.219,41.219,0,0,1-2.21-9.009c-.006-.059-1.349-7.12-1.975-5.787-5.491,11.651-6.348,24.036-8.077,36.572a333.026,333.026,0,0,1-9.913,46.8c-4.419,15.332-9.662,24.008-9.212,29.861s8.375-.9,8.375-.9Z" transform="translate(1.894 15.925)"></path><path class="c" d="M1536.947,1047.875c-10.364,4.9-17.807-3.84-25.12-9.51-23.321-18.1-39.424-5.876-65.474-5.476-14.7.227-27.419-9.524-42.335-8.358-8.429.656-30.3,11.123-31.583.472a54.186,54.186,0,0,1,6.268-31.87c4.107-7.63,13.237-12.8,21.2-15.969a47.481,47.481,0,0,1,9.13-2.918c3.115-.527,6.2-.147,8.321-2.528a32.048,32.048,0,0,0,4.92-8.732,43.978,43.978,0,0,0,3.147-11.861,42.362,42.362,0,0,0,.216-7.7,100.444,100.444,0,0,0-2.378-14.087c-.474-2.269-.924-4.544-1.243-6.832-.792-5.7-.686-11.664,1.621-17.03,1.8-4.182.729-8.586,1.03-13.117.475-7.124,3.284-16.325,11.632-9.494a18.091,18.091,0,0,1,4.82,7.421c3.016,7.383,4.647,15.263,5.971,23.254.855,5.175,1.586,10.39,2.486,15.553,1.88,10.819,4.5,21.379,10.566,30.718,13.361,20.555,44.545,14.6,60.647,32.079,5.2,5.641,7.543,12.566,11.908,18.7C1539.7,1020.417,1554.705,1039.491,1536.947,1047.875Z" transform="translate(3.658 7.032)"></path><g transform="translate(1372.578 976.425)"><path class="a" d="M1369.158,1197.132q1.6-10.811,3.378-21.6c.83-5.023,1.873-10.008,3.026-14.976,3.234-13.89,7.33-27.6,9.953-41.39,3.572-18.766-1.261-42.579-3.971-61.288-2.453-16.919-12.138-38.279-9.841-55.032,2.317-16.834,4.565-23.861,20.98-30.124,6.9-2.63,13.811-5.219,20.773-7.7a1.565,1.565,0,0,1,1.4-.042,1.519,1.519,0,0,1,.481,1.081c.742,5.182,1.562,10.29,2.422,15.466,1.03,6.152,2.879,12.1,4.016,18.2.355,1.906,6.119,19.56,7.524,19.434,2-.674,4.19-4.268,5.613-5.911q3.168-3.654,6.226-7.383,5.944-7.269,11.5-14.836,5.489-7.489,10.579-15.25c2.311-3.521,3.552-7.912,6.238-11.173,1.945-2.361,2.322-2.031,5.5-1.379q3.944.8,7.836,1.79a165.664,165.664,0,0,1,30.475,11.023c10.158,4.844,16.821,12.828,21.83,22.021,5.912,10.844,9.528,23.366,13.874,34.441q11.456,29.2,20.58,59.234c2.036,6.7,6.288,15.133,2.155,21.761-3.566,5.728-11.389,7.924-17.291,10.45-5.395,2.306-11.412,4.771-13.242.3-.276-.681-8.7-21.408-8.062-22.142,4.289-4.956-.02-13.139-7.788-28.059-3.722-7.151-8.41-13.953-11.869-21.181a81.229,81.229,0,0,1-4.4-10.247,13.591,13.591,0,0,0-.987-2.465c-3.566,18.851-6.758,38.095-7.1,57.284-.013.367-.02.741-.02,1.11-.013.442-.013.876-.013,1.312q-.018,2.336.043,4.678c.043,1.779.108,3.551.206,5.33.051.889.108,1.772.162,2.662l.131,1.838c.593,7.971,1.631,15.907,2.773,23.835.176,1.221.356,2.441.531,3.668q.394,2.684.78,5.335c.1.643.187,1.287.282,1.925q.281,1.913.548,3.816.686,4.845,1.3,9.683,1.35,10.926,2.672,21.855.767,6.328,1.513,12.643" transform="translate(-1369.158 -962.754)"></path></g><path class="d" d="M1386.452,881.513c.287-2.063-2.775-3.273-2.918-5.354-.108-1.568,1.478-2.69,2.907-3.4s3.084-1.569,3.343-3.121c.344-2.059-2.072-4.016-1.326-5.97,1.4-3.674,4.526.483,6.79.037,4.966-.973,1.231-7.285,7.986-6.28.951.14,2.125-.067,2.494-.938.722-1.7-1.267-3.963,1.576-4.781,2.045-.587,3.588,1.093,5.413,1.423a2.639,2.639,0,0,0,2.722-1.282c.413-.758.432-1.717,1-2.367a2.462,2.462,0,0,1,2.462-.565,7.888,7.888,0,0,1,4.106,3.71c.381.724.936,1.539,1.766,1.539.741,0,1.285-.661,1.691-1.269.686-1.028,1.592-2.012,2.947-1.318,1.657.849,2.072,4.521,3.874,4.623,1.672.1,1.986-2.786,3.632-3.09,1.275-.237,2.134,1.208,2.6,2.4s1.418,2.609,2.668,2.271c.984-.264,1.349-1.468,2.191-2.03,3.64-2.423,3.583,3.658,4.378,4.912,1.945,3.068,3.026,2.447,6.808,2.782,1.52.142,3.181,1.383,2.733,2.791-.31.973-1.534,1.6-1.5,2.62.032,1.052,1.345,1.543,2.414,1.613s2.336.084,2.937.955c1.22,1.768-1.981,3.852-1.483,5.932.54,2.269,4.921,2.468,4.656,4.782-.172,1.513-2.386,2.1-2.679,3.592-.53,2.7,5.3,3.242,4.934,5.966-.234,1.774-2.594,1.717-3.144,3.068-.67,1.64-.032,2.377.294,3.515a4.063,4.063,0,0,1,.163,1.31c-.117,3.3-4.153,5.1-3.971,7.849.115,1.729,2.37,3.026,1.886,4.69-.54,1.851-3.632,1.473-4.764,3.049-1,1.39.121,3.318-.177,4.993-.266,1.513-1.621,2.562-2.874,3.47-5.134,3.711-14.609,6.783-21.026,7.1-9.25.461-18.856-3.819-25.5-9.964-8.06-7.447-8.862-22.37-7.349-32.312.163-1.081.373-2.155.611-3.22l-11.112,15.338c-2.359.513-4.176-2.21-4.358-4.577s.443-4.878-.534-7.049c-.584-1.3-1.738-2.54-1.415-3.925C1384.619,883.691,1386.26,882.889,1386.452,881.513Z" transform="translate(4.579 4.477)"></path><g transform="translate(1463.052 963.445)"><path class="d" d="M1453.075,952.558c8.861,14.1,9.146,31.1,5.746,46.9-.331,1.539,2.076,2.2,2.409.648,3.536-16.438,3.218-34.118-6-48.786-.843-1.341-3-.109-2.161,1.237Z" transform="translate(-1452.878 -950.743)"></path></g><g transform="translate(1449.331 1011.279)"><path class="d" d="M1454.25,1044.606c8.41,3.5,14.733-2.494,16.1-10.577.924-5.437.593-11.462.138-16.942a58.81,58.81,0,0,0-2.761-14.115c-1.16-3.366-3.308-6.877-7.068-7.807-3.276-.809-5.944,1.613-7.813,3.955-6.413,8.062-9.87,17.89-12.11,27.773-1.048,4.622-1.513,18.8,7.1,16.805.922-.216.749-1.754-.228-1.658-4.443.446-5.62-4.5-5.8-8.01-.253-4.763,1.672-9.467,3.05-13.957a56.181,56.181,0,0,1,6.363-14.265c1.735-2.691,4.106-7.879,7.705-8.31,4.833-.581,6.55,6.531,7.333,9.9a70.718,70.718,0,0,1,1.828,15.161c.073,5.084.656,10.568-1.607,15.313-2.225,4.666-6.421,6.6-11.4,4.768-1.146-.422-1.982,1.487-.841,1.962Z" transform="translate(-1440.181 -995.007)"></path></g><path class="e" d="M1405.52,1007.182c2.575-1.542,6.629-1.513,8.824.659,2.961,2.937,2.476,7.363-.574,10.061a7.282,7.282,0,0,1-10.125-.928,6.925,6.925,0,0,1,1.668-9.651C1405.382,1007.275,1405.451,1007.229,1405.52,1007.182Z" transform="translate(6.1 17.168)"></path><g transform="translate(1412.176 968.223)"><path class="d" d="M1419.543,955.386c-6.592,7.487-10.506,17.088-12.262,26.756-2.053,11.294-2.21,23.054,1.062,34.142.392,1.324,2.5.756,2.109-.571-3.184-10.783-3.188-22.058-1.361-33.082,1.564-9.426,5.153-18.886,11.419-26.3.554-.656-.388-1.606-.966-.949Z" transform="translate(-1405.8 -955.165)"></path></g><path class="e" d="M1449.3,1042.2a2.793,2.793,0,1,1,.239-4.79,2.886,2.886,0,0,1-.239,4.79Z" transform="translate(9.554 19.655)"></path><path class="e" d="M1455.958,1042.935a2.793,2.793,0,1,1,.24-4.788,2.888,2.888,0,0,1-.24,4.788Z" transform="translate(10.091 19.715)"></path><path class="f" d="M1445.761,926.622a122.662,122.662,0,0,0-13.525,11.161c-1.542,1.466-6.17,7-10.634,10.873a42.165,42.165,0,0,0,.216-7.7,100.743,100.743,0,0,0-2.377-14.087,56.48,56.48,0,0,1,8.678-9.161c3.236-2.742,6.844-5.237,11-6.238a14.791,14.791,0,0,1,4.152-.4C1444.132,916.241,1444.859,921.453,1445.761,926.622Z" transform="translate(7.476 9.5)"></path><path class="c" d="M1442.536,921.654c-2.662,7.442-14.184,23.84-23.958,22.946-13.5-1.241-19.924-24.391-22.487-34.7-4.087-16.441-1.411-36.154,12.112-48.127,13.773-12.191,31.577,1.221,37.208,14.913C1448.948,885.284,1448.211,905.787,1442.536,921.654Z" transform="translate(5.451 5.139)"></path><path class="d" d="M1437.669,902.186c2.868,2.276,8.814,3.919,11.563,1.837,2.868-2.169,2.517-6.443,1.885-9.942q-1.034-5.727-2.067-11.449c-.906-5-1.875-10.176-4.765-14.395-2.594-3.782-7.071-6.8-11.887-5.69-4.075.933-9.448,6.275-6.225,10.5.474.622,1.13,1.189,1.221,1.964.143,1.189-1.062,2.038-2,2.79s-1.76,2.2-.885,3.032c1.907-.7,4.141,1.522,3.411,3.386-.223.565-.648,1.105-.559,1.705.254,1.621,3.256.791,4.188,2.152,1.045,1.525-1.593,4.03-.131,5.175,2.105,1.65,2.468.47,3.82,3.242.879,1.8.148,3.39,1.729,5.054A6.452,6.452,0,0,0,1437.669,902.186Z" transform="translate(7.855 5.568)"></path><path class="d" d="M1421.648,897.427c.009-.044.018-.09.03-.135.821-3.232,5.909-1.382,4.926,1.586C1425.686,901.651,1421.1,900.195,1421.648,897.427Z" transform="translate(7.651 8.252)"></path><path class="d" d="M1399.367,901.712c.018-1.136.668-2.261,1.961-2.1,1.914.237,2.354,3.3.634,4.054C1400.219,904.437,1399.345,903.067,1399.367,901.712Z" transform="translate(5.857 8.575)"></path><g transform="translate(1400.195 896.294)"><path class="d" d="M1414.184,917.332a9.843,9.843,0,0,1-4.55.3c-2.213-.492-2.469-1.884-2.544-3.869-.182-4.863-.041-9.82-1.176-14.6a12.3,12.3,0,0,0-4.1-6.821c-2.066-1.7-4.115-1.981-6.644-2.5-.5-.108-.677-.946-.093-1.074,4.685-1.034,9.351,3.219,11.207,7.07,1.564,3.248,1.715,6.954,1.954,10.477.158,2.305.285,4.612.409,6.916.186,3.471,1.917,3.078,5.277,2.973C1414.561,916.18,1414.869,917.151,1414.184,917.332Z" transform="translate(-1394.713 -888.605)"></path></g><g transform="translate(1420.568 893.952)"><path class="d" d="M1428.788,888.979c-2.694.473-4.917-1.332-7.572-.68-3.45.849-5.327,4.279-6.682,7.259a.5.5,0,0,1-.935-.166c-.391-3.2,2.647-6.454,5.25-8.069,3.384-2.094,6.533.09,9.978.882a.392.392,0,0,1-.039.775Z" transform="translate(-1413.565 -886.439)"></path></g><g transform="translate(1413.085 929.993)"><path class="d" d="M1407.674,921.057c1.018-.257,2.567.842,3.406.432.783-.374-.187-1.837,1.219-1.689a20.994,20.994,0,0,1,5.545,1.67c1.393.54,2.607.917,2.567,2.408a7.164,7.164,0,0,1-2.33,4.4c-2.223,2.2-7.008,3.178-9.538.769-1.249-1.189-.854-1.54-.411-2.859.432-1.277,0-1.579-.839-2.662C1406.641,922.692,1406.083,921.462,1407.674,921.057Z" transform="translate(-1406.641 -919.789)"></path><path class="g" d="M1419.294,923.171c.324.286.332.783-.195,1.6a5.488,5.488,0,0,1-3.594,1.847,7.574,7.574,0,0,1-4.539-.389c-.648-.331-2.377-1.387-2.269-1.975.28-1.482,2.892-.793,4.193-.823S1418.283,922.291,1419.294,923.171Z" transform="translate(-1406.476 -919.544)"></path></g><path class="d" d="M1388.156,888.094c.279-15.137,8.26-30.331,24.137-33.5,6.648-1.328,13.472.6,19.971,2.517,4.157,1.224,8.513,2.563,11.509,5.649,3.6,3.711,3.82,9.974-.635,13.19-5.268,3.8-9.43-3.929-14.543-.01-.9.685-1.723,1.678-2.858,1.687-1.335.01-2.607-1.392-3.807-.815-1.416.683-.616,3.042-1.712,4.155-.91.924-2.486.445-3.757.734a5.928,5.928,0,0,0-2.98,2.285,6.152,6.152,0,0,1-2.957,2.321,2.781,2.781,0,0,1-2.316-.54c-.648-.54-1.123-1.83-2.269-1.234a1.292,1.292,0,0,0-.628,1.095,2.771,2.771,0,0,0,.316,1.264,6.341,6.341,0,0,1,.455,1.1,1.357,1.357,0,0,1-.165,1.136c-.473.622-1.11.313-1.74.441-.9.182-1.8-.2-2.549.573a1.846,1.846,0,0,0-.392,1.9c.228.594.773,1.206.479,1.77-.512.973-2.462-.055-3.026.894-.5.849.973,1.864.567,2.764s-1.729.389-2.448.714c-1.362.613-.324,1.859.309,2.728,1.487,2.028-1.144,1.821-1.221,3.538-.064,1.432.717,2.518-.146,3.868a1.911,1.911,0,0,1-2.552.891c-.022-.011-.042-.021-.063-.032-2.128-1.081.54-4.372-1.674-4.991-.466-.13-1.026.045-1.4-.246-.763-.585.288-2.46.108-3.319-.216-.984-.74-1.884-1.039-2.841A31.372,31.372,0,0,1,1388.156,888.094Z" transform="translate(4.949 4.909)"></path><path class="e" d="M1428.54,908.837a13.439,13.439,0,0,1-7.252-.956c-2.32-1.114-3.685-3.7-5.358-5.581-.883-1-1.712-2.136-3.123-2.388-2.147-.384-3.484,2.269-3.7,4a10.6,10.6,0,0,1-2.053,4.739c-3.736,5.113-12.162,4.847-16.365.487a9.932,9.932,0,0,1-.108-13.744c1.705-1.847,3.52-2.154,5.991-2.281a19.682,19.682,0,0,1,6.951.7,10.1,10.1,0,0,1,3.927,2.076,6.06,6.06,0,0,0,3.647,2.169,5.509,5.509,0,0,0,3.518-.787c1.081-.648,1.434-1.892,2.422-2.674a37.239,37.239,0,0,1,2.909-2.365c2.655-1.694,5.346-1.991,8.42-1.968a7.093,7.093,0,0,1,3.29.422,10.546,10.546,0,0,1,3.43,2.425,10.3,10.3,0,0,1,1.146,1.476C1439.741,900.084,1434.747,908.167,1428.54,908.837Zm6.311-11.958c-.718-2.521-3.177-3.831-5.689-4.083a12.914,12.914,0,0,0-7.21,1.13c-1.907.989-4.215,3.272-4.149,5.585.062,2.137,2.278,4.607,3.977,5.728,2.81,1.855,7.476,1.486,10.1-.46a7.871,7.871,0,0,0,2.968-7.9Zm-47.929,2.278,4.065,5.636a8.83,8.83,0,0,0,3.665,4.167c3,1.657,7.514,1.377,9.834-1.238,2.716-3.052,3.921-9.8-1.135-11.315-3.9-1.172-11.03-2.12-12.815,2.784a6.1,6.1,0,0,0-.351,1.837,8.528,8.528,0,0,0,.8,3.766Z" transform="translate(4.853 7.819)"></path><path class="c" d="M1533.742,1114.375c.031,1.477,2.708.724,2.259,2.116,0,0-3.519,1.658-5.6,2.4-1.15.412-7.88,2.531-12.5,3.674a66.446,66.446,0,0,1-8.067,1.837c-11.167,1.315-36.332,3.369-47.054,3.277a16.162,16.162,0,0,1-6.8-1.864,11.85,11.85,0,0,1-1.087-.589,8.294,8.294,0,0,1-2-2.287c-2.173-3.294-4.379-9.179-1-9.9,14.512-3.115,43.731-7.889,58.023-12.774a57.561,57.561,0,0,0,16.655-8.55c.7,2.9,5.039,15.818,5.891,18.371A24.412,24.412,0,0,0,1533.742,1114.375Z" transform="translate(9.954 24.074)"></path><g transform="translate(1369.658 1081.262)"><path class="e" d="M1460.953,1067.308l-2.81,31.785-7.211,81.555a.376.376,0,0,1-.406.338l-83.726-7.143a.367.367,0,0,1-.343-.392v-.006l1.017-11.5,9-101.836a.383.383,0,0,1,.414-.337l83.724,7.138a.375.375,0,0,1,.345.4Z" transform="translate(-1366.456 -1059.766)"></path><path class="d" d="M1432.5,1071.969l-33.835-2.9a.879.879,0,0,1-.807-.943v0l.667-7.516a.884.884,0,0,1,.962-.792l33.836,2.9a.876.876,0,0,1,.807.94v0l-.668,7.516A.883.883,0,0,1,1432.5,1071.969Z" transform="translate(-1363.923 -1059.762)"></path></g><path class="c" d="M1329.606,1104.857c-1.711,7.024,33.611,15.788,34.525,15.921,4.956.4,15.532,5.144,17.717,1.348.675-1.167,1.987-13.271,1.987-13.271s-18.887-8.617-21.742-11.849c-.347-.392-1.508-1.786-1.508-1.786S1331.317,1097.832,1329.606,1104.857Z" transform="translate(0.224 24.357)"></path><path class="h" d="M1449.583,896.47a4.432,4.432,0,0,0-3.3-3.065c-2.72-.513-5.418,1.17-7.17,3.279a10.41,10.41,0,0,0-2.46,9.011c.813,3.125,4,5.7,7.241,5.236,2.927-.416,5.11-3.059,5.867-5.868A15.752,15.752,0,0,0,1449.583,896.47Z" transform="translate(8.849 8.068)"></path><path class="a" d="M1852.248,1009.759a66.419,66.419,0,0,0,3.283,18.936c3.914,12.626,10.478,24.913,14.912,36.7,3.228,8.562,6.317,18.215,6.935,27.406.456,6.7,1,12.828,4.209,18.55a25.8,25.8,0,0,0,2.7,3.925c4.362,5.263,11.8,8.526,18.2,6.126,6.866-2.575,10.191-10.595,10.392-17.925.374-13.259-3.833-26.289-6.513-39.106a200.988,200.988,0,0,0-10.389-33.973c-2.309-5.737-4.23-11.661-6.114-17.593-3.006-9.4-5.963-18.83-10.363-27.571-.667-1.33-1.366-2.644-2.111-3.946a26.252,26.252,0,0,0-2.906-4.277,13.2,13.2,0,0,0-1.895-1.8C1861.228,966.5,1852.17,1002.275,1852.248,1009.759Z" transform="translate(42.393 14.566)"></path><path class="b" d="M1855.287,1027.758c3.913,12.625,10.477,24.914,14.912,36.7,3.227,8.562,6.315,18.217,6.934,27.406.456,6.707,1,12.83,4.209,18.551a5.313,5.313,0,0,0,1.269-.28c2.35-.854,3.768-3.361,4.073-5.844a21.246,21.246,0,0,0-.868-7.411,341.245,341.245,0,0,1-8.95-73.621c-.158-12.767.522-25.285-3.449-37.625-.454-1.408-2.643,5.5-2.658,5.561a42.182,42.182,0,0,1-3.283,8.76c-1.166,2.34-10.733,26.053-11.433,25.968C1855.792,1026.534,1855.535,1027.145,1855.287,1027.758Z" transform="translate(42.638 15.501)"></path><path class="a" d="M1726.383,1044.589c10.277,4.946,17.657-3.873,24.907-9.6,23.126-18.276,39.092-5.931,64.923-5.529,14.575.229,27.187-9.617,41.978-8.439,8.359.664,30.043,11.231,31.317.475a55.554,55.554,0,0,0-6.21-32.175c-4.069-7.7-13.126-12.927-21.026-16.123a46.54,46.54,0,0,0-9.053-2.947c-3.09-.533-6.148-.149-8.252-2.552a32.532,32.532,0,0,1-4.879-8.815,45.1,45.1,0,0,1-3.121-11.974,43.529,43.529,0,0,1-.216-7.781,103.1,103.1,0,0,1,2.353-14.222c.471-2.291.916-4.587,1.232-6.9.787-5.759.681-11.779-1.6-17.195-1.783-4.222-.724-8.667-1.021-13.242-.47-7.194-3.256-16.481-11.534-9.584a18.285,18.285,0,0,0-4.78,7.492c-2.99,7.457-4.606,15.41-5.919,23.477-.848,5.226-1.573,10.488-2.465,15.7-1.863,10.921-4.463,21.583-10.475,31.015-13.25,20.749-44.169,14.74-60.137,32.387-5.152,5.7-7.479,12.685-11.807,18.884C1723.659,1016.873,1708.775,1036.127,1726.383,1044.589Z" transform="translate(31.571 6.637)"></path><path class="i" d="M1847.869,994.955c-.8,1.307-2.105,2.558-2.586,3.839-1.9,5.041-2.7,10.824-4.005,16.056q-4,16.042-8.008,32.087c.216-.854-11.115-10.582-12.338-11.937a129.14,129.14,0,0,1-11.5-14.778c-6.268-9.383-13.724-21.5-15.528-32.791.013.079,20.664.454,22.508.521l24.45.885c2.27.082,4.742.245,6.419,1.774a3.015,3.015,0,0,1,.693,4.207C1847.94,994.864,1847.9,994.909,1847.869,994.955Z" transform="translate(37.686 15.661)"></path><path class="a" d="M1895.376,1197.464c-.823-5.072-5.524-34.1-6.671-39.113-3.207-14.025-7.269-27.868-9.869-41.792-3.541-18.945,1.25-42.987,3.937-61.878,2.432-17.081,12.037-38.645,9.757-55.56-2.3-17-4.526-24.09-20.8-30.412-6.842-2.656-13.7-5.268-20.6-7.77a1.527,1.527,0,0,0-1.386-.043,1.55,1.55,0,0,0-.477,1.1c-.737,5.232-1.549,10.389-2.4,15.615-1.021,6.209-2.854,12.221-3.981,18.371-.352,1.925-6.067,19.745-7.457,19.621-1.988-.681-4.155-4.311-5.567-5.969q-3.133-3.686-6.173-7.457-5.9-7.337-11.4-14.978-5.442-7.559-10.488-15.4c-2.291-3.553-3.523-7.987-6.186-11.28-1.932-2.384-2.3-2.053-5.454-1.394q-3.91.809-7.771,1.809a162.705,162.705,0,0,0-30.215,11.131c-10.073,4.891-16.679,12.953-21.645,22.235-5.864,10.945-9.448,23.587-13.758,34.77q-11.357,29.485-20.406,59.8c-2.02,6.772-6.237,15.285-2.138,21.977,3.535,5.783,11.293,8,17.15,10.551,5.349,2.328,8.47,3.091,10.284-1.424a16.964,16.964,0,0,0,.736-2.451c3.771-16.413,10.123-31.44,17.826-46.5,3.689-7.219,8.339-14.086,11.77-21.384a82.824,82.824,0,0,0,4.366-10.346,13.871,13.871,0,0,1,.973-2.485c3.535,19.034,6.7,38.461,7.04,57.834.013.371.019.749.019,1.12.012.447.012.885.012,1.326q.019,2.36-.043,4.724c-.043,1.8-.108,3.586-.205,5.381-.05.9-.108,1.788-.16,2.687l-.13,1.858c-.589,8.049-1.621,16.061-2.749,24.066-.173,1.232-.352,2.465-.526,3.7-.259,1.809-.52,3.6-.773,5.388-.1.648-.187,1.3-.279,1.945-.186,1.288-.366,2.569-.54,3.85q-.679,4.894-1.282,9.777-1.337,11.033-2.65,22.065c-.787,6.593-.844,8.533-1.642,15.1" transform="translate(29.505 13.339)"></path><path class="b" d="M1767.232,1193.967q.566-3.122,1.148-6.24c4.1-21.93,13.529-43.179,18.556-65.165,6.34-27.738-7.287-53.835-18.6-77.987-3.344-7.132-5.1-14.805-6.484-22.53-.563-3.134-1.554-6.2-2-9.349-.508-3.566-.935-7.145-1.4-10.717-.551,2.575-.551,5.177-.941,7.752-.432,2.872-1.146,5.72-1.8,8.55a139.719,139.719,0,0,0-2.972,15.021c3.535,19.032,6.7,38.46,7.04,57.833.013.371.019.749.019,1.122.012.444.012.884.012,1.324q.02,2.358-.043,4.725c-.044,1.8-.108,3.585-.205,5.38-.05.9-.108,1.79-.16,2.688l-.13,1.856c-.6,8.019-1.629,16.035-2.749,24.066-.173,1.233-.352,2.465-.526,3.7-.259,1.808-.52,3.6-.773,5.387-.1.648-.186,1.3-.279,1.945q-.281,1.93-.54,3.85-.679,4.892-1.282,9.777-1.337,11.031-2.65,22.065c-.678,5.7-.425,9.4-1.083,15.1" transform="translate(34.095 16.835)"></path><path class="d" d="M1791.778,891.478c-1.443-8.942-1.456-19.452,2.75-25.72,5.593-8.332,16.757-14.309,26.34-16.273,10.915-2.236,16.238,1.2,22.929,9.692a51.436,51.436,0,0,1,10.489,24.071c1.5,10.035.7,25.1-7.291,32.619-7.805,7.343-20.756,12.382-31.185,9.023-10.873-3.5-18.714-13.573-22.012-24.509A69.885,69.885,0,0,1,1791.778,891.478Z" transform="translate(37.444 4.479)"></path><path class="d" d="M1797.5,948.363c-8.787,14.24-9.069,31.391-5.7,47.348.324,1.554-2.053,2.219-2.387.657-3.506-16.6-3.191-34.445,5.944-49.255.835-1.354,2.978-.108,2.139,1.25Z" transform="translate(37.157 12.361)"></path><path class="d" d="M1797.839,1041.288c-8.339,3.539-14.609-2.516-15.971-10.676-.916-5.489-.588-11.572-.137-17.1a60.451,60.451,0,0,1,2.738-14.25c1.149-3.4,3.281-6.945,7.008-7.883,3.249-.816,5.9,1.63,7.747,4,6.36,8.14,9.787,18.063,12.007,28.039,1.04,4.669,1.5,18.981-7.042,16.967-.914-.216-.743-1.771.226-1.672,4.4.45,5.569-4.549,5.751-8.088.25-4.809-1.657-9.558-3.026-14.09a57.2,57.2,0,0,0-6.308-14.4c-1.722-2.717-4.071-7.954-7.641-8.39-4.792-.587-6.495,6.592-7.272,10a72.633,72.633,0,0,0-1.812,15.307c-.073,5.133-.648,10.667,1.593,15.454,2.207,4.712,6.367,6.661,11.3,4.814,1.138-.427,1.966,1.5.835,1.979Z" transform="translate(36.668 15.966)"></path><path class="e" d="M1844.911,1003.51c-2.553-1.557-6.572-1.532-8.748.664a6.9,6.9,0,0,0,.123,9.76c.143.139.292.272.445.4a6.81,6.81,0,1,0,8.255-10.77Z" transform="translate(40.937 16.871)"></path><path class="d" d="M1831.077,951.214c6.537,7.565,10.418,17.253,12.158,27.017,2.034,11.4,2.192,23.276-1.053,34.472a1.084,1.084,0,1,1-2.09-.576h0c3.155-10.886,3.161-22.27,1.349-33.4-1.55-9.516-5.108-19.068-11.321-26.551-.55-.662.384-1.621.957-.958Z" transform="translate(40.594 12.722)"></path><path class="e" d="M1800.877,1038.854a2.947,2.947,0,1,0-.777-.7,2.945,2.945,0,0,0,.777.7Z" transform="translate(38.137 19.392)"></path><path class="e" d="M1794.281,1039.595a2.946,2.946,0,1,0-.778-.707,2.946,2.946,0,0,0,.778.707Z" transform="translate(37.605 19.451)"></path><path class="b" d="M1908.965,1110.741" transform="translate(46.969 25.609)"></path><path class="b" d="M1806.43,922.029A122.823,122.823,0,0,1,1819.5,933.44c1.429,1.48,5.717,7.065,9.855,10.978a46.566,46.566,0,0,1-.2-7.781,109.881,109.881,0,0,1,2.2-14.222,55.219,55.219,0,0,0-8.045-9.251c-3-2.768-6.343-5.288-10.191-6.3a19.172,19.172,0,0,0-4.765-.4C1807.557,911.7,1807.264,916.816,1806.43,922.029Z" transform="translate(38.697 9.128)"></path><path class="a" d="M1811.116,917.159c2.638,7.512,14.064,24.068,23.754,23.165,13.384-1.251,19.757-24.624,22.3-35.029,4.054-16.6,1.4-36.5-12.011-48.589-13.657-12.309-31.309,1.233-36.894,15.056C1804.757,880.444,1805.49,901.137,1811.116,917.159Z" transform="translate(38.673 4.726)"></path><path class="d" d="M1813.474,896.843c-3,2.742-7.688,5-10.908,2.515-2.843-2.192-2.5-6.506-1.869-10.039l2.053-11.563c.9-5.054,1.859-10.275,4.725-14.533,6.712-9.973,18.673-6.815,19.491,4.727C1827.644,877.537,1820.228,890.675,1813.474,896.843Z" transform="translate(38.199 5.159)"></path><path class="a" d="M1810.061,906.782c-2.9-.42-8.291-3.555-9.041-6.391s-.309-3.442.074-6.349c.54-1.912.684-2.232,1.368-3.026a5.189,5.189,0,0,1,3.527-2.232c2.7-.527,5.25,3.911,6.984,6.039" transform="translate(38.227 7.699)"></path><path class="j" d="M1828.268,892.7c-.009-.046-.018-.092-.03-.137-.814-3.261-5.859-1.4-4.885,1.6C1824.265,896.964,1828.808,895.492,1828.268,892.7Z" transform="translate(40.052 7.869)"></path><path class="j" d="M1850.255,897.024c-.018-1.149-.661-2.282-1.945-2.12-1.9.24-2.333,3.325-.628,4.094C1849.414,899.774,1850.278,898.391,1850.255,897.024Z" transform="translate(41.939 8.195)"></path><path class="d" d="M1836.759,912.8a9.6,9.6,0,0,0,4.512.3c2.195-.5,2.449-1.9,2.522-3.907.179-4.916.04-9.915,1.165-14.735a12.476,12.476,0,0,1,4.064-6.887c2.053-1.715,4.081-2,6.592-2.529.5-.108.671-.956.092-1.086-4.647-1.044-9.273,3.252-11.112,7.139-1.552,3.279-1.7,7.024-1.939,10.575-.157,2.328-.283,4.658-.405,6.987-.185,3.5-1.9,3.108-5.231,3C1836.387,911.634,1836.083,912.613,1836.759,912.8Z" transform="translate(41.113 7.3)"></path><path class="d" d="M1821.963,884.164c2.672.478,4.876-1.347,7.509-.685,3.42.856,5.281,4.323,6.625,7.327a.492.492,0,0,0,.927-.169c.389-3.232-2.624-6.518-5.206-8.146-3.35-2.116-6.477.09-9.893.889a.4.4,0,0,0,.039.784Z" transform="translate(39.922 7.123)"></path><path class="d" d="M1843.143,919.055c-.831,1.094-1.258,1.406-.833,2.69.44,1.33.832,1.686-.406,2.888-2.508,2.432-7.254,1.441-9.458-.777a7.274,7.274,0,0,1-2.307-4.447c-.04-1.5,1.164-1.887,2.544-2.43a20.6,20.6,0,0,1,5.5-1.685c1.394-.152.432,1.325,1.208,1.705.833.406,2.371-.7,3.378-.441C1844.341,916.965,1843.789,918.2,1843.143,919.055Z" transform="translate(40.609 9.841)"></path><path class="g" d="M1831.025,918.691c-.324.289-.324.791.193,1.611a5.418,5.418,0,0,0,3.566,1.863,7.39,7.39,0,0,0,4.5-.394c.641-.333,2.361-1.4,2.251-1.993-.278-1.5-2.868-.8-4.159-.833S1832.027,917.8,1831.025,918.691Z" transform="translate(40.663 10.088)"></path><path class="d" d="M1865.423,883.278c-.276-15.285-8.19-30.624-23.931-33.826-6.592-1.34-13.358.608-19.8,2.541-4.124,1.235-8.443,2.593-11.413,5.7-2.853,2.993-4.03,8.422-.859,11.618,3.589,3.617,14.072.746,19.11,2.254,6.827,2.045,12.868,6.024,18.426,10.386,8.321,6.529,10.26,13.789,12.161,24.259C1863.459,899.895,1865.569,891.6,1865.423,883.278Z" transform="translate(38.785 4.494)"></path><path class="k" d="M1817.167,889.835a10.29,10.29,0,0,1,1.137-1.491,10.459,10.459,0,0,1,3.4-2.448,6.912,6.912,0,0,1,3.262-.427c3.047-.024,5.717.277,8.348,1.986a36.5,36.5,0,0,1,2.884,2.388c.981.788,1.328,2.038,2.4,2.7a5.387,5.387,0,0,0,3.487.794,6,6,0,0,0,3.617-2.191,9.944,9.944,0,0,1,3.89-2.1,19.134,19.134,0,0,1,6.892-.709c2.45.13,4.25.441,5.944,2.3a10.157,10.157,0,0,1-.115,13.876c-4.168,4.4-12.522,4.671-16.227-.491a10.838,10.838,0,0,1-2.039-4.786c-.209-1.74-1.534-4.421-3.664-4.034-1.4.254-2.221,1.4-3.1,2.41-1.659,1.9-3.012,4.51-5.313,5.635a13.14,13.14,0,0,1-7.191.966C1818.637,903.541,1813.684,895.382,1817.167,889.835Zm4.307,10.29c2.6,1.965,7.23,2.339,10.018.465,1.685-1.134,3.883-3.627,3.943-5.784.066-2.338-2.221-4.639-4.106-5.639a12.6,12.6,0,0,0-7.15-1.14c-2.485.255-4.928,1.577-5.641,4.121A8.027,8.027,0,0,0,1821.474,900.125Zm44.582-5.676-3.242,1.889a6.173,6.173,0,0,0-.348-1.855c-1.77-4.951-8.835-4-12.706-2.81-5.013,1.535-3.819,8.341-1.126,11.424,2.305,2.639,6.777,2.918,9.756,1.247a8.856,8.856,0,0,0,3.634-4.206,8.717,8.717,0,0,0,.79-3.8Z" transform="translate(39.47 7.432)"></path><path class="b" d="M1694.222,1108.184c3.535,5.783,11.293,8,17.15,10.551,5.349,2.328,8.47,3.09,10.284-1.424l-.186-.186c-2.031-1.919-4.662-3.058-6.94-4.68-5.919-4.215-9.07-11.5-9.834-18.723s.594-14.488,2.13-21.59c3.726-17.291,8.537-34.318,13.813-51.191,2.662-8.524,5.449-17.012,8.272-25.483.316-.941.941-2.314,1.6-3.813-5.856,10.94-9.442,23.582-13.751,34.764q-11.359,29.486-20.406,59.8C1694.34,1092.978,1690.124,1101.491,1694.222,1108.184Z" transform="translate(29.505 16.001)"></path><path class="a" d="M1718.024,1112.844c-7.328-.376,16.534,6.09,21.12,7.239,2.631.664,5.306,1.289,8,1.852,10.9,2.268,22.209,3.457,33.16,1.627a24.072,24.072,0,0,0,6.743-1.881,11.611,11.611,0,0,0,1.081-.6,8.336,8.336,0,0,0,1.987-2.308c2.155-3.326,4.26-8.96.991-10-14.3-4.543-28.45-9.525-42.687-14.259,0,0-13.223-5.218-22.189-6.788C1726.223,1087.734,1719.549,1112.922,1718.024,1112.844Z" transform="translate(31.453 23.753)"></path><path class="b" d="M1882.376,1182.862q-1.733-12.01-3.668-23.991c-.823-5.071-1.857-10.1-3-15.12-14.046-6.244-24.554-6.539-21.528,7.378a42.075,42.075,0,0,0,1.524,5.177c3.179,8.869,6.661,17.771,10.123,26.714" transform="translate(42.506 27.941)"></path><path class="b" d="M1798.484,1093.337l7.151,82.34a.377.377,0,0,0,.4.339l83.021-7.212a.37.37,0,0,0,.342-.4v-.008l-1.009-11.613c-11.59-7.406-31.136-11.225-40.12-16.612a146.092,146.092,0,0,1-31.917-25.855C1812.31,1109.967,1803.9,1101.436,1798.484,1093.337Z" transform="translate(38.056 24.205)"></path><path class="l" d="M1795.907,1064.211l2.786,32.09,7.151,82.341a.379.379,0,0,0,.4.34l83.022-7.214a.37.37,0,0,0,.341-.4v-.008l-1.009-11.615-8.921-102.814a.38.38,0,0,0-.409-.34l-83.021,7.207a.374.374,0,0,0-.343.4Z" transform="translate(37.848 21.241)"></path><rect class="m" width="35.445" height="9.38" rx="0.604" transform="matrix(0.996, -0.087, 0.087, 0.996, 1857.768, 1080.893)"></rect><path class="a" d="M1777.638,1122.292a11.93,11.93,0,0,0,6.778,1.49c3.443-.272,6.712-1.6,10.117-2.172,3.616-.6,7.241.946,10.767,1.513,2.91.484,5.758.291,8.47-2.316,5.058-4.863-.737-14.636-4.885-17.954a20.144,20.144,0,0,0-16.828-4.117,16.909,16.909,0,0,0-5.479,2.545,29.546,29.546,0,0,0-5.587,4.986" transform="translate(36.374 24.607)"></path><path class="b" d="M1717.92,1111.238c6.786,2.792,17.2,5.5,21.781,6.648,2.631.662,5.306,1.288,8,1.851,10.9,2.269,22.209,3.457,33.161,1.628a24.116,24.116,0,0,0,6.742-1.88,11.178,11.178,0,0,0,1.081-.6,8.307,8.307,0,0,0,1.988-2.308,4.829,4.829,0,0,0-3.852-3.3,15.188,15.188,0,0,0-5.511.277,118.289,118.289,0,0,1-41.847-.619c-6.668-1.3-13.23-1.875-19.217-5.306" transform="translate(31.556 25.358)"></path><path class="b" d="M1785.094,1123.353c3.35-.27,6.66-2.038,9.977-2.6,3.521-.594,6.924.973,10.362,1.532a8.761,8.761,0,0,0-4.863-3.55c-2.508-.729-5.174-.594-7.749-.988s-5.3-1.5-6.519-3.84c-1.676-3.232.157-7.073.865-10.65a5.713,5.713,0,0,0,.03-2.2c-5.33,3.657-10.172,10.257-11.131,15.715C1775.193,1121.74,1781.156,1123.671,1785.094,1123.353Z" transform="translate(36.24 24.828)"></path><path class="a" d="M1872.049,1102.206c4.635-4.41,5.061-4.15,7.889-7.413,4.024-4.647,8.8-9.665,14.946-9.815,5.529-.142,13.4,5.619,16.1,10.451a15.417,15.417,0,0,1,1.374,6.732,23.548,23.548,0,0,1-7.98,10.66c-7.164,5.678-19.586,13.7-28.688,12.818l-3.64.025S1879.847,1117.412,1872.049,1102.206Z" transform="translate(43.99 23.531)"></path><path class="b" d="M1880.556,1114.795c-4.647-.7-13.934-2.6-13.59.895.943,9.468,13.454,10.216,24.228,4.238a74.8,74.8,0,0,0,7.937-4.694c9.152-5.572,14.352-13.272,13.036-16.379C1912.166,1098.855,1905.6,1118.578,1880.556,1114.795Z" transform="translate(43.58 24.65)"></path><path class="a" d="M1875.146,1098c-3.854,1.242-6.751,5.873-8.707,9.429-3.728,6.774-2.355,12.414,3.926,17.1,2.733,2.038,6.343,3.2,9.606,2.212,3.524-1.066,5.984-4.472,6.758-8.073,1.221-5.69-.366-17-6.1-20.044A6.806,6.806,0,0,0,1875.146,1098Z" transform="translate(43.372 24.556)"></path><path class="a" d="M1700.891,965.059c-2.867,6.038-8.81,10.231-15.206,12.155s-13.247,1.8-19.874.942c-13.734-1.755-26.948-6.511-39.336-12.685-9.635-4.8-18.938-10.543-26.494-18.214s-13.3-17.415-14.86-28.066c-.379-2.588-1.158-6.024-.026-8.45,1.368-2.918,4.878-5.163,7.521-6.782,3.7-2.269,8.66-4.026,10.029-8.261,1.708-5.286,3.042-10.664,4.933-15.924,2.594-7.2,4.539-16.79,9.018-22.855,6.458-8.742,14.049-4.824,22.51-2.406,9.51,2.717,26.284,4.092,30.532,15.886a2.141,2.141,0,0,1,.073.211,15.073,15.073,0,0,1,.638,2.581c1.023,6.376-1.722,13.261-3.5,19.075a95.488,95.488,0,0,0-2.831,12.8,84.463,84.463,0,0,1,8.679,4.852,75.849,75.849,0,0,1,11.053,8.572,64.983,64.983,0,0,1,16.362,23.613C1702.978,949.434,1704.272,957.944,1700.891,965.059Z" transform="translate(20.793 4.696)"></path><path class="b" d="M1665.816,941.411c1.219-1.545-12.915-20-14.454-22.13q-7.938-10.926-16.932-21.032a257.316,257.316,0,0,0-18.946-19.244c-5.921-5.394-8.456-12.034,1.864-15.389,4.472-1.457,9.324-.765,13.958.041a328.818,328.818,0,0,1,36.959,8.626c1.022,6.376-3.865,14.4-5.646,20.209-1.316,4.3-1.1,8.192-1.783,12.428a110.256,110.256,0,0,1,9.884,5.607c3.923,2.507,7.532,3.847,10.941,7.046A174.276,174.276,0,0,1,1665.816,941.411Z" transform="translate(22.876 5.604)"></path><path class="n" d="M1604.679,1185.882c-2.25-15.66-1.57-31.324,5.931-45.619,10.2-19.434,30.085-33.2,51.517-35.676a58.374,58.374,0,0,1,27.64,3.35,48.639,48.639,0,0,1,11.887,6.6,60.835,60.835,0,0,1,10.238,9.905c12.684,15.44,18.768,37.277,21.2,61.291" transform="translate(22.329 25.079)"></path><path class="a" d="M1764.321,1199.357q.073-6.012.08-12.015a590.574,590.574,0,0,0-7.4-77.677c-.5-3.073-.919-6.327-1.432-9.618-.993-10.9-3.976-22.3-4.8-29.407-4.779-41.26-15.454-79.733-25.215-120-.892-3.684-1.837-7.486-4.22-10.516-12.144-15.469-17,9.632-18.654,16.676-8,34.114-7.531,72.621-6.026,107.56.715,16.571,3.343,33.069,8.91,48.771.887,6.352,2.341,12.76,3.343,19.02,3.66,22.874,7.1,44.347,10.756,67.22" transform="translate(29.769 11.445)"></path><path class="b" d="M1752.367,1199.357q-.387-10.182-1.412-20.33c-4.011-40.883-8.069-81.764-12.83-122.569-4.412-37.824-13.41-76.217-23.819-113.559a8.8,8.8,0,0,1,1.31-7.482c-8.023-2.541-11.571,15.562-12.932,21.378-8,34.115-7.531,72.621-6.026,107.56.715,16.57,3.343,33.069,8.91,48.771.887,6.352,2.341,12.761,3.342,19.02q5.379,33.612,10.755,67.222" transform="translate(29.769 11.445)"></path><path class="n" d="M1658.18,1184.034q.086-1.741.154-3.483c.568-14.347.207-29.64-7.636-41.665-6.446-9.883-19.344-16.02-30.955-12.752-11.721,3.3-26,4.634-35.811,12.528a41.43,41.43,0,0,0-8.5,9.242c-8.4,12.59-9.715,21.115-11.715,36.118" transform="translate(19.116 26.78)"></path><path class="b" d="M1601.793,1183.031q.49-2.989.987-5.978c1.945-11.722,12.212-28.487-1.444-36.252-4.953-2.81-11.147-3.617-17.4-3.134a41.427,41.427,0,0,0-8.5,9.242c-7.094,10.628-9.835,23.38-11.72,36.123" transform="translate(19.116 27.771)"></path><path class="i" d="M1732.864,1182.4a20.594,20.594,0,0,1-2.865,1.849H1571.157c-.149-3.93-.021-8.274-.509-12.928-5.149-49.328-5.156-90.269-24.678-135.75-8.9-20.713-40.141-50.42-28.505-71.533,11.267-20.443,33.906-34.164,54.207-44.166,6.634-3.265,13.363-6.559,19.116-11.282,4.03-3.308,9.583-11.55,15.6-8.856a16,16,0,0,1,5.1,4.273c12.86,14.429,23.924,30.552,38.318,43.453,3.084,2.762,6.935,5.539,10.99,4.7,4.755-.983,7.091-6.293,8.436-10.96a145.386,145.386,0,0,0,5.62-36.022,22.089,22.089,0,0,1,4.795,1.971q1.23.569,2.486,1.081a8.105,8.105,0,0,0,2.3.909c4.971,1.891,9.567,3.069,13.884,6.295,10.828,8.09,21.745,14.947,29.32,26.535,6.268,9.575,4.391,21.31,5.448,32.172,4.067,41.89,10.246,82.491,9.711,124.818C1742.54,1117.852,1749.094,1169.5,1732.864,1182.4Z" transform="translate(15.178 8.543)"></path><path class="o" d="M1707.13,1179.315h-88.84c15.362-8.958,25.729-26.152,34.455-41.123,28.541-49.03,34.293-107.175,29.861-162.792-.256-3.233-3.719-11.519-1.152-13.91,4.154-3.864,8.308,3.177,9.618,6.389,12.135,29.868,13.431,62.874,14.229,95.107q.9,36.528,1.335,73.065Q1706.92,1157.691,1707.13,1179.315Z" transform="translate(23.518 13.477)"></path><g transform="translate(1623.167 793.304)"><path class="p" d="M1655.675,835.61c2.141-2.17,4.762-4.225,5.389-7.208.216-1.021.229-2.208,1.019-2.889.811-.7,1.97-.5,3.111-.324l-12.269,18.55C1651.652,840.966,1653.534,837.779,1655.675,835.61Z" transform="translate(-1596.888 -790.745)"></path><path class="d" d="M1601.085,821.98c.055-.948,1.787-6.33,1.6-6.652a4.349,4.349,0,0,1,.457-4.872c2.336-2.721,6.268-.128,6.616-4.883a3.41,3.41,0,0,1,.8-2.317c.943-.88,1.914-.093,2.209.865.626-1.983,1.53-5.282,4.4-4.809.942.156,1.935.75,2.782.306,1.635-.857.183-4.013,1.77-4.956,1.01-.6,2.218.316,3.045,1.147s2.105,1.69,3.059,1.005c.756-.54.764-1.779,1.55-2.283.993-.639,2.2.367,2.986,1.247s2.167,1.751,3.012.925c1.892-1.846-.12-2.618,2.864-3.25.3-.065,2.032,1.324,2.871,1.332.983.011,1.8-1.468,2.883-1.482,1.806-.023,3.2,1.541,4.707,2.384a4.376,4.376,0,0,1,4.089-2.323,3.881,3.881,0,0,1,3.293,3.375l4.834-2.147c-.844,1.352,1.114,2.8,2.708,2.851s3.515-.257,4.491,1c.363.47.507,1.081.889,1.541.821.981,1.973.488,2.9.973,2.5,1.313,3.286,3.35,3.99,5.9a1.853,1.853,0,0,0-1.03,2.409h0a6.9,6.9,0,0,0,2.053,2.249,2.982,2.982,0,0,1,1.244,2.655c-.194.875-1.04,1.524-1.371,2.318l.9-1.367a17.3,17.3,0,0,1-.6,3.2c.432.668,1,1.3.858,2.045-.174.953-2.09,1.608-2.836,1.927-.694.3-.987.03-1.621.571-.713.611-1.208,2.269-1.621,3.115a68.014,68.014,0,0,0-4.521,12.073c-.77,2.857-1.405,5.88-3.282,8.167-1.913,2.334-3.8,2.168-6.423,2.242-3.537.1-7.365,1.32-10.85,1.951l-21.849,3.953c-6.876,1.245-19.656-.157-20.415-9.308-.225-2.7,1.719-4.273-.8-6.679-2.81-2.677-.8-2.828-.92-5.572-.08-1.9-.786-3.35-1.257-5.266A18.116,18.116,0,0,1,1601.085,821.98Z" transform="translate(-1601.04 -793.304)"></path></g><path class="a" d="M1608.41,824.058c.108-4.37.638-8.474,2.108-11.169,1.3-2.368,3.742-3.831,6.092-5.156a36.1,36.1,0,0,1,9.58-3.522c5.5-1.263,9.726,1.016,14.946,2.212,5.827,1.337,12.044,1.734,17.784.128a10.339,10.339,0,0,1,11.773,4.272c2.378,3.612,2.44,9.884,3.178,14.115a158.807,158.807,0,0,1,2.135,35.523c-.283,5.416,0,12.655-2.114,17.7-2.708,6.475-7.9,10.665-13.517,14.625-3.011,2.122-6.233,4.323-9.91,4.539-3.134.183-6.137-1.108-9.008-2.377l-18.086-7.968c-4.131-1.821-8.378-3.719-11.5-6.983-8.437-8.828-2.956-28.491-3-39.526C1608.863,836.422,1608.26,830,1608.41,824.058Z" transform="translate(22.621 0.85)"></path><path class="d" d="M1607.445,873.148c1.829,9.385,11.671,14.589,20.413,18.465,11.927,5.3,21.812,9.139,33.833,2.451a27.731,27.731,0,0,0,12.25-14.113,37.791,37.791,0,0,0,2.918-14.532c0-.254-.481-5.427-.7-5.3-1.787,1.119-2.269,6.681-4.594,6.988-1.987.263-5.079-1.027-6.759-2-1.595-.925-3.833-2.125-5.5-2.918a12.114,12.114,0,0,0-8.162-.575c-3.068.783-4.647,2.757-7.565,3.73a26.307,26.307,0,0,1-9.942,1.8c-6.323-.432-8.429-3.913-10.6-6.769-2.847-3.755-.478-10.787-.142-15.119.807-10.423-7.07-19.15-3.037-29.7,2.3-6.013,8.436-10.741,14.846-10.147a12.214,12.214,0,0,0,2.61.145,2.512,2.512,0,0,0,2.084-1.376c.6-1.5-.984-2.959-2.458-3.632-5.8-2.653-11.212-.8-17.054.278-4.647.865-10.034,3.273-11.341,8.273-.821,3.146-1.513,6.458-2.012,9.665-.648,4.127-2.053,8.377-1.894,12.581.056,1.473.334,3.106,1.5,4,1.222.938,2.969.732,4.386,1.335,8.515,3.622,2.243,19.932-2.992,22.682C1605.559,860.417,1606.608,868.843,1607.445,873.148Z" transform="translate(22.417 0.475)"></path><path class="a" d="M1621.29,1202.824q1.414-21.086,2.3-42.206c3.715-88.8.324-178.239-14.4-265.992a2.127,2.127,0,0,0-3.332-2.045c-14.662,5.152-29.7,9.143-44.416,14.332a203.909,203.909,0,0,0-26.25,11.16c-6.928,3.6-21.2,9.55-24.458,17.13-3.178,7.385.98,11.2,2.844,18.177,5.714,21.385,6.515,45.5,8.919,67.474,6.634,60.635,8.618,121.214,9.507,181.969" transform="translate(14.748 7.978)"></path><path class="a" d="M1737.146,1201.982c-1.305-44.513-2.874-89.02-5.009-133.5q-1.373-28.591-3.08-57.168c-1.027-17.047-3.026-33.609-4.64-50.571-.58-6.074.38-13.581-1.99-19.285-1.4-3.372-4.521-5.664-7.495-7.781-8.046-5.728-16.131-11.347-24.514-16.574a129.26,129.26,0,0,0-14.128-7.486c-2.427-1.122-4.878-2.2-7.339-3.242-.3-.124-5.108-2.184-4.952-1.708a315.431,315.431,0,0,1,9.493,36.988c7.356,37.232,9.589,76.6,12.915,113.657,4.348,48.436,6.621,97.667,7.11,146.67" transform="translate(27.206 8.979)"></path><g transform="translate(1606.552 894.909)"><path class="d" d="M1597.991,890.415a27.553,27.553,0,0,0-5.217,8.448,80.6,80.6,0,0,0-5.473,17.785,111.472,111.472,0,0,0-.125,37.308q.649,4.268,1.553,8.492c.725,3.411,5.951,1.968,5.227-1.441a115.8,115.8,0,0,1-2.278-37.155,80.258,80.258,0,0,1,4.146-18.028c2.151-5.971,5.889-11.059,8.193-16.967.172-.443.316-1.01-.027-1.338a1.2,1.2,0,0,0-1.176-.078A11.786,11.786,0,0,0,1597.991,890.415Z" transform="translate(-1585.666 -887.324)"></path></g><g transform="translate(1597.822 967.29)"><path class="d" d="M1600.561,1024.5c-13.009,4.955-18.371-8.753-18.634-19.344-.309-12.257.324-24.724,3.827-36.543,1.158-3.9,3.618-9.86,8.44-10.222,4.107-.308,7.357,5.167,9.255,8.09a98.115,98.115,0,0,1,7.49,12.968c2.626,5.836,4.314,12.056,6.16,18.168,1.689,5.584,3.242,11.437,2.21,17.291a17.464,17.464,0,0,1-2.161,6.234c-1.435,2.282-3.15,2.795-5.728,2.509-1.586-.175-1.863,2.355-.371,2.745,10.384,2.721,12.2-13.607,11.33-20.251-1.02-7.774-3.525-15.815-6.092-23.213a88.652,88.652,0,0,0-9.039-17.748c-2.544-4.085-5.828-9.338-10.821-10.627-5.132-1.324-9.942,2.81-12.3,6.978-2.918,5.148-3.977,11.607-4.971,17.36a138.919,138.919,0,0,0-1.479,25.656c.115,7.3,1.461,15.193,6.749,20.641,4.819,4.961,11.435,5.219,17.507,2.564,1.827-.8.516-3.969-1.37-3.252Z" transform="translate(-1577.587 -954.301)"></path></g><path class="k" d="M1606.58,1022.778a3.717,3.717,0,1,0-.317-6.432,3.916,3.916,0,0,0,.317,6.432Z" transform="translate(22.425 17.946)"></path><path class="k" d="M1596.637,1025.095a4.075,4.075,0,1,0-.348-7.051,4.295,4.295,0,0,0,.348,7.051Z" transform="translate(21.608 18.078)"></path><path class="k" d="M1682.949,973.511c-3.155-1.925-8.124-1.892-10.813.822-3.632,3.667-3.035,9.186.7,12.557a8.422,8.422,0,1,0,10.112-13.38Z" transform="translate(27.666 14.43)"></path><g transform="translate(1684.985 908.43)"><path class="d" d="M1662.706,904.6c4.131,3.9,6.808,9.306,9.171,14.416a73.873,73.873,0,0,1,6.278,21.792c2.347,14.877,2.3,30.1-1.945,44.632-.648,2.2,2.789,3.143,3.43.946,4.393-15.04,4.177-31.068,1.471-46.4a86.51,86.51,0,0,0-6.756-21.749,69.117,69.117,0,0,0-5.867-10.2,23.419,23.419,0,0,0-8.4-7.889c-.526-.281-1.253-.511-1.654-.069a.973.973,0,0,0,.014,1.165,3.061,3.061,0,0,0,.966.789A21.081,21.081,0,0,1,1662.706,904.6Z" transform="translate(-1658.243 -899.836)"></path></g><g transform="translate(1653.069 826.18)"><g transform="translate(0 1.084)"><path class="d" d="M1629.327,826.308c1.821.2,3.624.534,5.441.748a6.84,6.84,0,0,0,3.956-.166.511.511,0,0,0,.141-.709.521.521,0,0,0-.187-.169c-1.28-.584-2.819-.4-4.207-.589-1.6-.216-3.191-.5-4.8-.688-1.023-.119-1.376,1.459-.348,1.573Z" transform="translate(-1628.71 -824.728)"></path></g><g transform="translate(1.068 10.145)"><path class="d" d="M1631.936,836.944a3.332,3.332,0,0,1,1.67-2.773c.886-.486,1.691.378,2.221.181,1.983-.741,2.528,3.026,1.755,4.164a3.228,3.228,0,0,1-4.484.865c-.038-.025-.073-.051-.11-.078A2.788,2.788,0,0,1,1631.936,836.944Z" transform="translate(-1629.518 -833.04)"></path><path class="d" d="M1630.622,836.34a15.5,15.5,0,0,1,4.323-1.569,6.117,6.117,0,0,1,2.486.084,3.844,3.844,0,0,0,1.352.174.763.763,0,0,0-.079-1.524c-.709.048-1.4-.374-2.113-.392a12.072,12.072,0,0,0-2.263.237,16.742,16.742,0,0,0-4.176,1.582c-.849.4-.4,1.813.468,1.4Z" transform="translate(-1629.698 -833.113)"></path></g><g transform="translate(30.626 10.673)"><path class="d" d="M1664.546,837.019a3.33,3.33,0,0,0-1.945-2.586c-.931-.393-1.644.55-2.191.408a1.105,1.105,0,0,0-1.284.833,2.42,2.42,0,0,0-.066.973,2.475,2.475,0,0,0,.031,2.574,3.163,3.163,0,0,0,4.453.426c.067-.055.132-.112.193-.174A2.793,2.793,0,0,0,1664.546,837.019Z" transform="translate(-1656.915 -833.542)"></path><path class="d" d="M1666.1,836.251a15.437,15.437,0,0,0-4.461-1.115,6.1,6.1,0,0,0-2.466.34,3.853,3.853,0,0,1-1.327.311.763.763,0,0,1-.079-1.524c.712-.026,1.359-.516,2.062-.607a11.973,11.973,0,0,1,2.277,0,16.763,16.763,0,0,1,4.316,1.142c.886.312.585,1.764-.324,1.449Z" transform="translate(-1657.049 -833.602)"></path></g><path class="d" d="M1667.342,823.748c-3.773.838-7.457,1.65-10.357,4.249a8.036,8.036,0,0,0-1.673,2.794,22.758,22.758,0,0,0-2.143,8c-.123,3.019-.471,6.035.1,9.044.246,1.3.216,2.621.405,3.924.152,1.062.648,2.161.187,3.223a3.378,3.378,0,0,1-2.2,1.676,8.017,8.017,0,0,1-5.365-.209,3.088,3.088,0,0,0-.981-.3.729.729,0,0,0-.736,1.145,2.427,2.427,0,0,0,1.825.923,16.1,16.1,0,0,0,5.524-.119,4.471,4.471,0,0,0,2.692-1.318c1.314-1.608.513-5.221.317-7.146-.114-1.123-.519-2.189-.63-3.319a50.813,50.813,0,0,1,.013-7.166,23,23,0,0,1,1.956-7.964c1.938-4.6,7.26-4.979,11.58-5.916C1668.86,825.057,1668.347,823.524,1667.342,823.748Z" transform="translate(-1627.441 -823.725)"></path></g><path class="b" d="M1522.072,1199.887c-.273-2.125-.463-4.355-.586-6.716-2.725-52.237-3.5-104.662-5.286-156.942q-1.532-44.911-3.065-89.828c-.2-5.9.089-12.847,4.946-16.21,4.659-3.223,11.455-1.148,15.245,3.057s5.324,9.925,6.693,15.421a1176.989,1176.989,0,0,1,34.36,251.228" transform="translate(15.032 10.916)"></path><path class="a" d="M1547.26,1200.152c3.205-43.97,6.889-88.984,5.621-132.955-1.125-38.974-3.625-81.834-14.717-119.187-2.749-9.258-5.494-26.352-19.467-22-10.756,3.35-12.752,18.7-13.7,27.939q-6.376,61.963-8.754,124.226-2.331,60.97-.842,121.987" transform="translate(13.557 10.65)"></path><path class="a" d="M1602.1,837.125c1.616-2.613,4.6-4.884,7.849-4.5,10.329,1.234,3.927,16.967,1.159,21.938-3.141,5.645-8.679-1.466-9.956-4.9A14.657,14.657,0,0,1,1602.1,837.125Z" transform="translate(22.056 3.169)"></path><g transform="translate(1677.643 827.252)"><path class="d" d="M1670.594,832.592c1.456,3.041,1.729,5.219.2,8.344a8.678,8.678,0,0,1-4.681,4.4,9.137,9.137,0,0,1-11.652-5.589q-.12-.342-.213-.693c-.864-3.614.09-8.153,3.593-10.019a10.9,10.9,0,0,1,7.846-.617c2.858.871,3.891,2.9,5.028,5.483.59,1.342,3.018.7,2.829-.766-1.018-7.947-9.494-10.133-16.06-7.118-5.3,2.433-7.068,9.247-5.463,14.531,1.751,5.758,8.995,9.685,14.749,7.046a11.681,11.681,0,0,0,6.6-6.974c1.435-3.479.616-5.853-.98-9.078-.6-1.2-2.371-.149-1.8,1.05Z" transform="translate(-1651.449 -824.717)"></path></g><g transform="translate(1649.741 827.888)"><path class="d" d="M1644.773,833.181c1.454,3.041,1.729,5.219.2,8.344a8.673,8.673,0,0,1-4.678,4.4,9.138,9.138,0,0,1-11.652-5.589q-.12-.342-.213-.693c-.865-3.614.09-8.153,3.593-10.019a10.893,10.893,0,0,1,7.845-.617c2.859.871,3.89,2.9,5.028,5.483.591,1.342,3.02.7,2.83-.766-1.019-7.947-9.495-10.133-16.061-7.118-5.3,2.433-7.067,9.247-5.462,14.531,1.75,5.758,8.994,9.685,14.749,7.046a11.687,11.687,0,0,0,6.6-6.974c1.435-3.478.615-5.853-.98-9.078-.6-1.2-2.371-.149-1.8,1.05Z" transform="translate(-1625.63 -825.306)"></path></g><g transform="translate(1670.326 836.597)"><path class="d" d="M1653.147,833.435c-2.486-.108-4.928-.046-7.412-.07-1.441-.014-1.375,2.356,0,2.195a56.768,56.768,0,0,1,7.412-.216.956.956,0,1,0,0-1.913Z" transform="translate(-1644.679 -833.365)"></path></g><g transform="translate(1632.66 834.436)"><path class="d" d="M1628.7,834.652c-4-.108-7.434-1.227-11.255-2.161-2.4-.588-4.961-1.9-7.25-.513a.767.767,0,0,0,0,1.311c2.41,1.489,6.072,1.461,8.84,2.234a36.025,36.025,0,0,0,9.664,1.49,1.182,1.182,0,0,0,0-2.362Z" transform="translate(-1609.824 -831.365)"></path></g><path class="g" d="M1644.211,866.7a1.551,1.551,0,0,0-.885.195c-.7.478-.309,1.773.019,2.281a6.8,6.8,0,0,0,7.467,2.819,9.036,9.036,0,0,0,4.863-2.995c.856-1.182.4-2.184-1.144-2.2l-10.22-.1Z" transform="translate(25.507 5.921)"></path><path class="q" d="M1372.141,1122.134a11.923,11.923,0,0,0,5.987,3.507c3.359.805,6.88.549,10.293,1.06,3.625.546,6.593,3.138,9.771,4.766,2.619,1.359,5.386,2.057,8.771.415,6.312-3.062,3.821-14.146.9-18.583a20.147,20.147,0,0,0-14.733-9.114,16.947,16.947,0,0,0-6,.727,29.562,29.562,0,0,0-6.856,3.015" transform="translate(3.661 25.078)"></path><path class="r" d="M1378.752,1125.549c3.27.778,6.964.12,10.292.609,3.532.523,6.284,3.065,9.38,4.659a8.751,8.751,0,0,0-3.528-4.878c-2.159-1.47-4.737-2.165-7.063-3.334s-4.573-3.059-5.012-5.667c-.6-3.592,2.332-6.677,4.113-9.86a5.712,5.712,0,0,0,.71-2.084c-6.2,1.829-12.844,6.611-15.442,11.506C1369.834,1120.957,1374.909,1124.636,1378.752,1125.549Z" transform="translate(3.617 25.146)"></path><path class="c" d="M1450.159,1101.984c-3.854,1.243-6.751,5.875-8.707,9.429-3.728,6.774-2.355,12.415,3.926,17.1,2.733,2.037,6.343,3.2,9.606,2.212,3.524-1.066,5.984-4.472,6.757-8.073,1.221-5.69-.366-17-6.1-20.044A6.811,6.811,0,0,0,1450.159,1101.984Z" transform="translate(9.086 24.878)"></path></g></svg>